<svg width="32" height="32" viewBox="0 0 32 32" fill="none" xmlns="http://www.w3.org/2000/svg">
<g clip-path="url(#clip0_265_244)">
<path d="M31.9997 16C31.9997 13.844 31.0557 11.8187 29.4397 10.4333C29.6024 8.312 28.8384 6.212 27.3131 4.68667C25.7891 3.16133 23.6824 2.39733 21.5664 2.56C20.1797 0.944 18.1544 0 15.9984 0C13.8424 0 11.8171 0.944 10.4304 2.56C8.3144 2.39733 6.20907 3.16133 4.68374 4.68667C3.1584 6.21333 2.3944 8.312 2.55707 10.4333C0.94107 11.8187 -0.00292969 13.844 -0.00292969 16C-0.00292969 18.156 0.94107 20.1813 2.55707 21.5667C2.3944 23.688 3.1584 25.788 4.68374 27.3133C6.20907 28.8373 8.3144 29.5987 10.4304 29.44C11.8171 31.056 13.8424 32 15.9984 32C18.1544 32 20.1797 31.056 21.5664 29.44C23.6837 29.6013 25.7891 28.8373 27.3131 27.3133C28.8384 25.7867 29.6024 23.688 29.4397 21.5667C31.0557 20.1813 31.9997 18.156 31.9997 16ZM27.2717 19.872L26.5384 20.3653L26.7077 21.232C27.0051 22.7587 26.5264 24.328 25.4277 25.4267C24.3291 26.5253 22.7624 27.004 21.2317 26.7067L20.3664 26.5387L19.8731 27.2707C19.0024 28.5613 17.5544 29.332 16.0011 29.332C14.4477 29.332 12.9997 28.5613 12.1291 27.2707L11.6357 26.5387L10.7704 26.7067C9.2384 27.0027 7.67307 26.524 6.5744 25.4267C5.47574 24.3267 4.99707 22.7587 5.2944 21.232L5.46374 20.3653L4.7304 19.872C3.43974 19.0013 2.66907 17.5533 2.66907 16C2.66907 14.4467 3.43974 12.9987 4.7304 12.128L5.46374 11.6347L5.2944 10.768C4.99707 9.24133 5.47574 7.672 6.5744 6.57333C7.67307 5.47467 9.24107 5 10.7704 5.29333L11.6357 5.46133L12.1291 4.72933C12.9997 3.43867 14.4477 2.668 16.0011 2.668C17.5544 2.668 19.0024 3.43867 19.8731 4.72933L20.3664 5.46133L21.2317 5.29333C22.7611 4.99733 24.3291 5.47467 25.4277 6.57333C26.5264 7.67333 27.0051 9.24133 26.7077 10.768L26.5384 11.6347L27.2717 12.128C28.5624 12.9987 29.3331 14.4467 29.3331 16C29.3331 17.5533 28.5624 19.0013 27.2717 19.872ZM11.9997 13.3333C11.2637 13.3333 10.6664 12.736 10.6664 12C10.6664 11.264 11.2637 10.6667 11.9997 10.6667C12.7357 10.6667 13.3331 11.264 13.3331 12C13.3331 12.736 12.7357 13.3333 11.9997 13.3333ZM21.3331 20C21.3331 20.736 20.7357 21.3333 19.9997 21.3333C19.2637 21.3333 18.6664 20.736 18.6664 20C18.6664 19.264 19.2637 18.6667 19.9997 18.6667C20.7357 18.6667 21.3331 19.264 21.3331 20ZM20.7544 10.6667L14.3544 21.3333H11.2451L17.6451 10.6667H20.7544Z" fill="#AD8B3A"></path>
</g>
<defs>
<clipPath id="clip0_265_244">
<rect width="32" height="32" fill="white"></rect>
</clipPath>
</defs>
</svg>
