<svg width="33" height="32" viewBox="0 0 33 32" fill="none" xmlns="http://www.w3.org/2000/svg">
<g clip-path="url(#clip0_265_240)">
<path d="M28.5 8.00039H24.1933C26.0787 6.16039 26.372 3.74039 24.9267 1.81372C24.2 0.843055 23.14 0.216388 21.9413 0.0457215C20.7387 -0.128945 19.548 0.181721 18.58 0.907055C17.6733 1.58572 17.0093 2.45105 16.5173 3.33105C16.0253 2.45105 15.3613 1.58705 14.4547 0.907055C13.4853 0.180388 12.292 -0.128945 11.0933 0.0457215C9.89467 0.216388 8.83467 0.844388 8.108 1.81372C6.66933 3.72972 6.956 6.13239 8.84667 8.00039H4.5C2.29467 8.00039 0.5 9.79505 0.5 12.0004V32.0004H32.5V12.0004C32.5 9.79505 30.7053 8.00039 28.5 8.00039ZM20.18 3.04039C20.5787 2.74039 21.0733 2.62039 21.564 2.68439C22.0573 2.75505 22.4947 3.01372 22.7933 3.41239C23.648 4.55105 22.8507 5.60439 22.336 6.09639C20.2213 7.97239 17.976 8.00039 17.8507 8.00039L17.8613 7.60306C17.9733 6.83639 18.456 4.33372 20.18 3.04039ZM10.2413 3.41239C10.5413 3.01372 10.9773 2.75505 11.4707 2.68439C11.968 2.62039 12.456 2.74172 12.8547 3.04039C14.5533 4.31505 15.0467 6.76172 15.1667 7.56306V8.00039C14.9787 8.00039 12.7813 7.94439 10.7347 6.12972C10.1827 5.60306 9.38667 4.55239 10.2413 3.41239ZM4.5 10.6671H14.8627C13.5707 13.2817 8.556 13.3337 8.49733 13.3337V16.0004C10.7907 16.0004 14.5213 15.2897 16.4987 12.9977C18.4773 15.2897 22.208 16.0004 24.4987 16.0004V13.3337C24.4427 13.3337 19.428 13.2817 18.136 10.6671H28.4987C29.2333 10.6671 29.832 11.2644 29.832 12.0004V22.6671H3.16667V12.0004C3.16667 11.2644 3.76533 10.6671 4.5 10.6671ZM3.16667 29.3337V25.3337H29.8333V29.3337H3.16667Z" fill="#AD8B3A"></path>
</g>
<defs>
<clipPath id="clip0_265_240">
<rect width="32" height="32" fill="white" transform="translate(0.5)"></rect>
</clipPath>
</defs>
</svg>
